# AST/ASF file generated using VICON BodyLanguage
# -----------------------------------------------
:version 1.10
:name VICON
:units
  mass 1.0
  length 0.45
  angle deg
:documentation
   .ast/.asf automatically generated from VICON data using
   VICON BodyBuilder and BodyLanguage model FoxedUp or BRILLIANT.MOD
:root
   order TX TY TZ RX RY RZ
   axis XYZ
   position 0 0 0  
   orientation 0 0 0 
:bonedata
  begin
     id 1 
     name lhipjoint
     direction 0.606768 -0.715223 0.346827 
     length 2.41543 
     axis 0 0 0  XYZ
  end
  begin
     id 2 
     name lfemur
     direction 0.34202 -0.939693 0  
     length 7.2778  
     axis 0 0 20  XYZ
    dof rx ry rz
    limits (-160.0 20.0)
           (-70.0 70.0)
           (-60.0 70.0)
  end
  begin
     id 3 
     name ltibia
     direction 0.34202 -0.939693 0   
     length 7.61811   
     axis 0 0 20   XYZ
    dof rx
    limits (-10.0 170.0)
  end
  begin
     id 4 
     name lfoot
     direction 0.0823924 -0.226371 0.97055   
     length 2.33618   
     axis -90 7.62852e-016 20   XYZ
    dof rx rz
    limits (-45.0 90.0)
           (-70.0 20.0)
  end
  begin
     id 5 
     name ltoes
     direction 1.53554e-011 -4.21934e-011 1   
     length 1.17015   
     axis -90 7.62852e-016 20   XYZ
    dof rx
    limits (-90.0 20.0)
  end
  begin
     id 6 
     name rhipjoint
     direction -0.6077 -0.714582 0.346516   
     length 2.4176  
     axis 0 0 0  XYZ 
  end
  begin
     id 7 
     name rfemur
     direction -0.34202 -0.939693 0   
     length 7.28127   
     axis 0 0 -20   XYZ
    dof rx ry rz
    limits (-160.0 20.0)
           (-70.0 70.0)
           (-70.0 60.0)
  end
  begin
     id 8 
     name rtibia
     direction -0.34202 -0.939693 0   
     length 7.77648   
     axis 0 0 -20   XYZ
    dof rx
    limits (-10.0 170.0)
 end
 begin
     id 9 
     name rfoot
     direction -0.0809463 -0.222398 0.97159   
     length 2.37533  
     axis -90 -7.62852e-016 -20   XYZ
    dof rx rz
    limits (-45.0 90.0)
           (-20.0 70.0)
  end
  begin
     id 10 
     name rtoes
     direction -1.53568e-011 -4.21714e-011 1   
     length 1.18972   
     axis -90 -7.62852e-016 -20   XYZ
    dof rx
    limits (-90.0 20.0)
  end
  begin
     id 11 
     name lowerback
     direction 0.010968 0.991932 -0.126297   
     length 2.21698   
     axis 0 0 0   XYZ
    dof rx ry rz
    limits (-20.0 45.0)
           (-30.0 30.0)
           (-30.0 30.0)
  end
  begin
     id 12 
     name upperback
     direction 0.0167007 0.997503 -0.0686276   
     length 2.22371   
     axis 0 0 0   XYZ
    dof rx ry rz
    limits (-20.0 45.0)
           (-30.0 30.0)
           (-30.0 30.0)
  end
  begin
     id 13 
     name thorax
     direction 0.0111721 0.999885 -0.0102878   
     length 2.25242   
     axis 0 0 0   XYZ
    dof rx ry rz
    limits (-20.0 45.0)
           (-30.0 30.0)
           (-30.0 30.0)
  end
  begin
     id 14 
     name lowerneck
     direction -0.0120265 0.990428 0.137508   
     length 1.57674   
     axis 0 0 0   XYZ
    dof rx ry rz
    limits (-20.0 45.0)
           (-30.0 30.0)
           (-30.0 30.0)
  end
  begin
     id 15 
     name upperneck
     direction 0.0175669 0.998907 0.0433089   
     length 1.5618   
     axis 0 0 0   XYZ
    dof rx ry rz
    limits (-20.0 45.0)
           (-30.0 30.0)
           (-30.0 30.0)
  end
  begin
     id 16
     name head
     direction 0.00754609 0.99997 0.00185367  
     length 1.60579  
     axis 0 0 0   XYZ
    dof rx ry rz
    limits (-20.0 45.0)
           (-30.0 30.0)
           (-30.0 30.0)
  end
  begin
     id 17 
     name lclavicle
     direction 0.885866 0.429166 -0.176231  
     length 3.44967  
     axis 0 0 0   XYZ
    dof ry rz
    limits (-20.0 10.0)
           (0.0 20.0)
  end
  begin
     id 18 
     name lhumerus
     direction 1 -4.48973e-011 -1.90255e-027   
     length 5.20607   
     axis 180 -30 -90   XYZ
    dof rx ry rz
    limits (-60.0 90.0)
           (-90.0 90.0)
           (-90.0 90.0)
  end
  begin
     id 19
     name lradius
     direction 1 -4.48956e-011 9.87925e-027   
     length 3.39961   
     axis 180 -30 -90   XYZ
    dof rx
    limits (-10.0 170.0)
  end
  begin
     id 20
     name lwrist
     direction 1 -4.48985e-011 1.73247e-026   
     length 1.6998   
     axis -9.60847e-015 90 90   XYZ
    dof ry
    limits (-180.0 0.0)
 end
  begin
     id 21 
     name lhand
     direction 1 -4.48798e-011 3.46119e-026   
     length 0.519693   
     axis -2.21073e-014 90 90   XYZ
    dof rx rz
    limits (-90.0 90.0)
           (-45.0 45.0)
  end
  begin
     id 22 
     name lfingers
     direction 1 -4.48938e-011 6.92797e-026   
     length 0.41899   
     axis -4.42155e-014 90 90   XYZ
    dof rx
    limits (0.0 90.0)
  end
  begin
     id 23
     name lthumb
     direction 0.707107 -6.34952e-011 0.707107   
     length 0.601588   
     axis -90 45 6.0103e-014   XYZ
    dof rx rz
    limits (-45.0 45.0)
           (-45.0 45.0)
  end
  begin
     id 24 
     name rclavicle
     direction -0.866736 0.456792 -0.200276   
     length 3.45032  
     axis 0 0 0   XYZ 
    dof ry rz
    limits (-10.0 20.0)
           (-20.0 0.0)
  end
  begin
     id 25 
     name rhumerus
     direction -1 -4.4897e-011 8.65094e-028  
     length 5.32214   
     axis 180 30 90   XYZ
    dof rx ry rz
    limits (-90.0 60.0)
           (-90.0 90.0)
           (-90.0 90.0)
  end
  begin
     id 26 
     name rradius
     direction -1 -4.48987e-011 1.08427e-026   
     length 3.51208   
     axis 180 30 90   XYZ
    dof rx
    limits (-10.0 170.0)
  end
  begin
     id 27 
     name rwrist
     direction -1 -4.48961e-011 1.73222e-026   
     length 1.75604   
     axis -9.60847e-015 -90 -90   XYZ
    dof ry
    limits (-180.0 0.0)
  end
  begin
     id 28
     name rhand
     direction -1 -4.48895e-011 3.46314e-026   
     length 0.586681   
     axis -2.21073e-014 -90 -90   XYZ
    dof rx rz
    limits (-90.0 90.0)
           (-45.0 45.0)
  end
  begin
     id 29
     name rfingers
     direction -1 -4.48968e-011 6.92916e-026   
     length 0.472997   
     axis -4.42155e-014 -90 -90   XYZ
    dof rx
    limits (0.0 90.0)
  end
  begin
     id 30
     name rthumb
     direction -0.707107 -6.34848e-011 0.707107   
     length 0.679133   
     axis -90 -45 -6.0103e-014   XYZ
    dof rx rz
    limits (-45.0 45.0)
           (-45.0 45.0)
  end
:hierarchy
  begin
    root lhipjoint rhipjoint lowerback
    lhipjoint lfemur
    lfemur ltibia
    ltibia lfoot
    lfoot ltoes
    rhipjoint rfemur
    rfemur rtibia
    rtibia rfoot
    rfoot rtoes
    lowerback upperback
    upperback thorax
    thorax lowerneck lclavicle rclavicle
    lowerneck upperneck
    upperneck head
    lclavicle lhumerus
    lhumerus lradius
    lradius lwrist
    lwrist lhand lthumb
    lhand lfingers
    rclavicle rhumerus
    rhumerus rradius
    rradius rwrist
    rwrist rhand rthumb
    rhand rfingers
  end

#!OML:ASF H:\Dans Jumps\Project 1\Capture day 1\Session 1\subject.ASF
:FULLY-SPECIFIED
:DEGREES
1
root 0.484539 17.5672 -13.7764 6.01816 -0.852488 -1.48666
lowerback -0.987333 -0.440179 0.486194
upperback 4.52819 -0.682133 1.6431
thorax 5.2467 -0.357902 1.3908
lowerneck -15.6807 0.61701 -2.69896
upperneck 25.2937 1.55164 0.234533
head 10.7052 0.474422 0.753718
rclavicle 8.44835e-015 -1.03368e-014
rhumerus -18.1798 -10.9755 -84.7017
rradius 24.5269
rwrist 31.7656
rhand -19.4073 -26.3444
rfingers 7.12502
rthumb 6.91199 -56.2115
lclavicle 8.44835e-015 -1.03368e-014
lhumerus -17.7389 -6.58432 90.9141
lradius 20.0125
lwrist 4.01986
lhand -24.9795 -3.93603
lfingers 7.12502
lthumb 1.53141 26.0382
rfemur -10.8438 -3.51099 19.996
rtibia 19.4228
rfoot -13.891 -1.93609
rtoes 8.02615
lfemur -9.94004 8.39343 -18.5608
ltibia 16.7252
lfoot -11.5257 1.46654
ltoes -8.51711
2
root 0.482599 17.5665 -13.7775 6.01226 -0.822665 -1.50569
lowerback -0.988148 -0.449335 0.500823
upperback 4.53013 -0.694993 1.64387
thorax 5.24932 -0.363684 1.38269
lowerneck -15.6943 0.623638 -2.68096
upperneck 25.2811 1.56079 0.218441
head 10.7034 0.478486 0.746142
rclavicle 3.8763e-015 1.19271e-014
rhumerus -18.1576 -10.9705 -84.7335
rradius 24.5043
rwrist 31.7876
rhand -19.3234 -26.4057
rfingers 7.12502
rthumb 6.99299 -56.2702
lclavicle 3.8763e-015 1.19271e-014
lhumerus -17.4295 -6.13718 90.9064
lradius 19.3832
lwrist 3.56498
lhand -24.9651 -4.28865
lfingers 7.12502
lthumb 1.54524 25.6855
rfemur -10.8387 -3.48695 20.0241
rtibia 19.4318
rfoot -13.8996 -1.97399
rtoes 8.10146
lfemur -9.94738 8.36187 -18.5288
ltibia 16.7353
lfoot -11.5369 1.47499
ltoes -8.44798
3
root 0.481401 17.5658 -13.7782 6.00732 -0.790496 -1.4942
lowerback -0.981633 -0.454275 0.492585
upperback 4.52508 -0.700824 1.63849
thorax 5.24043 -0.366769 1.38143
lowerneck -15.68 0.612442 -2.68848
upperneck 25.2205 1.54306 0.228356
head 10.6783 0.471798 0.748013
rclavicle 4.77083e-015 -2.5842e-015
rhumerus -18.1771 -10.9391 -84.7527
rradius 24.5371
rwrist 31.7419
rhand -19.3778 -26.3162
rfingers 7.12502
rthumb 6.94045 -56.1824
lclavicle 4.77083e-015 -2.5842e-015
lhumerus -17.4464 -6.20733 90.9854
lradius 19.4013
lwrist 3.65244
lhand -24.953 -4.06798
lfingers 7.12502
lthumb 1.55695 25.9061
rfemur -10.8372 -3.53042 20.0136
rtibia 19.4422
rfoot -13.9112 -1.94214
rtoes 8.24289
lfemur -9.95156 8.35286 -18.5342
ltibia 16.7484
lfoot -11.5581 1.45823
ltoes -8.48612
4
root 0.479709 17.5654 -13.7797 6.00174 -0.771376 -1.50857
lowerback -0.964154 -0.454199 0.498741
upperback 4.51368 -0.70046 1.63857
thorax 5.21838 -0.366274 1.37818
lowerneck -15.6978 0.633178 -2.62452
upperneck 25.2482 1.56806 0.183487
head 10.6926 0.483437 0.724837
rclavicle 3.57812e-015 -1.25234e-014
rhumerus -18.1945 -10.9072 -84.7763
rradius 24.5465
rwrist 31.7249
rhand -19.3505 -26.3595
rfingers 7.12502
rthumb 6.9668 -56.2249
lclavicle 3.57812e-015 -1.25234e-014
lhumerus -17.5097 -6.26654 91.0635
lradius 19.4793
lwrist 3.70259
lhand -24.9455 -4.10579
lfingers 7.12502
lthumb 1.56424 25.8682
rfemur -10.8387 -3.54303 20.037
rtibia 19.4529
rfoot -13.9121 -1.95721
rtoes 8.10394
lfemur -9.95885 8.33989 -18.5106
ltibia 16.7606
lfoot -11.5709 1.46092
ltoes -8.45246
5
root 0.478172 17.5649 -13.7808 5.99378 -0.74962 -1.51551
lowerback -0.952956 -0.456302 0.49876
upperback 4.50808 -0.702955 1.63807
thorax 5.20613 -0.367469 1.37758
lowerneck -15.7005 0.640056 -2.59717
upperneck 25.2409 1.57589 0.163016
head 10.6907 0.487241 0.713903
rclavicle -3.27995e-015 1.53064e-014
rhumerus -18.2052 -10.877 -84.7977
rradius 24.5561
rwrist 31.7096
rhand -19.3442 -26.3651
rfingers 7.12502
rthumb 6.97292 -56.2303
lclavicle -3.27995e-015 1.53064e-014
lhumerus -17.5102 -6.25876 91.1307
lradius 19.4517
lwrist 3.69706
lhand -24.9321 -4.10835
lfingers 7.12502
lthumb 1.57712 25.8656
rfemur -10.8381 -3.56052 20.0499
rtibia 19.4669
rfoot -13.9193 -1.95759
rtoes 8.0857
lfemur -9.96081 8.32561 -18.4951
ltibia 16.7703
lfoot -11.5841 1.46183
ltoes -8.44605
6
root 0.47671 17.5643 -13.7819 5.98527 -0.731841 -1.52068
lowerback -0.941178 -0.456977 0.49497
upperback 4.50267 -0.703399 1.63758
thorax 5.19377 -0.367808 1.37923
lowerneck -15.7053 0.646926 -2.56936
upperneck 25.2393 1.58423 0.140739
head 10.6914 0.491016 0.702371
rclavicle 1.2921e-015 1.64991e-014
rhumerus -18.2159 -10.8445 -84.8166
rradius 24.564
rwrist 31.6987
rhand -19.3461 -26.3627
rfingers 7.12502
rthumb 6.97111 -56.2279
lclavicle 1.2921e-015 1.64991e-014
lhumerus -17.5329 -6.28701 91.2039
lradius 19.4695
lwrist 3.72709
lhand -24.9123 -4.0876
lfingers 7.12502
lthumb 1.59625 25.8862
rfemur -10.8367 -3.58192 20.0604
rtibia 19.4782
rfoot -13.9245 -1.95184
rtoes 8.05813
lfemur -9.96345 8.31251 -18.4824
ltibia 16.7832
lfoot -11.5971 1.46745
ltoes -8.45006
7
root 0.475319 17.5639 -13.7831 5.97692 -0.716696 -1.52634
lowerback -0.930321 -0.4564 0.490051
upperback 4.49832 -0.702158 1.63694
thorax 5.18302 -0.367359 1.38146
lowerneck -15.7153 0.654409 -2.53623
upperneck 25.2465 1.5935 0.113925
head 10.6964 0.495039 0.688539
rclavicle -5.96354e-015 5.96354e-015
rhumerus -18.2248 -10.8115 -84.8341
rradius 24.5697
rwrist 31.691
rhand -19.3458 -26.3628
rfingers 7.12502
rthumb 6.97135 -56.228
lclavicle -5.96354e-015 5.96354e-015
lhumerus -17.551 -6.31565 91.2761
lradius 19.4825
lwrist 3.7509
lhand -24.8907 -4.08888
lfingers 7.12502
lthumb 1.61711 25.8847
rfemur -10.8375 -3.60475 20.0711
rtibia 19.4917
rfoot -13.9305 -1.94231
rtoes 8.03322
lfemur -9.96413 8.29828 -18.4698
ltibia 16.7917
lfoot -11.6058 1.47653
ltoes -8.45899
8
root 0.47401 17.5635 -13.7842 5.9693 -0.704003 -1.53193
lowerback -0.922214 -0.454566 0.48431
upperback 4.49553 -0.699247 1.63557
thorax 5.17543 -0.366104 1.38346
lowerneck -15.7274 0.660472 -2.50229
upperneck 25.2573 1.60063 0.0872285
head 10.7032 0.498121 0.674356
rclavicle -1.19271e-015 1.78906e-015
rhumerus -18.2326 -10.7813 -84.8497
rradius 24.5756
rwrist 31.6886
rhand -19.3473 -26.3556
rfingers 7.12502
rthumb 6.96994 -56.2209
lclavicle -1.19271e-015 1.78906e-015
lhumerus -17.5631 -6.35743 91.3484
lradius 19.4911
lwrist 3.7827
lhand -24.8774 -4.09842
lfingers 7.12502
lthumb 1.62995 25.8751
rfemur -10.8386 -3.6304 20.0813
rtibia 19.5039
rfoot -13.9367 -1.92713
rtoes 8.02358
lfemur -9.96482 8.28325 -18.4579
ltibia 16.7997
lfoot -11.6121 1.48918
ltoes -8.4717
9
root 0.472803 17.5632 -13.7853 5.96398 -0.69212 -1.53702
lowerback -0.917647 -0.451722 0.477847
upperback 4.49342 -0.694984 1.63323
thorax 5.17055 -0.364189 1.38492
lowerneck -15.7477 0.666764 -2.46123
upperneck 25.2775 1.60718 0.058095
head 10.7152 0.50117 0.658133
rclavicle 1.18774e-014 -1.61016e-014
rhumerus -18.239 -10.7544 -84.8634
rradius 24.5817
rwrist 31.6887
rhand -19.3443 -26.3497
rfingers 7.12502
rthumb 6.97284 -56.2149
lclavicle 1.18774e-014 -1.61016e-014
lhumerus -17.5713 -6.41069 91.4207
lradius 19.4978
lwrist 3.81752
lhand -24.8708 -4.12112
lfingers 7.12502
lthumb 1.63632 25.8523
rfemur -10.8407 -3.65942 20.091
rtibia 19.5131
rfoot -13.941 -1.90913
rtoes 8.01067
lfemur -9.9682 8.26784 -18.4473
ltibia 16.8083
lfoot -11.6163 1.50286
ltoes -8.48896
10
root 0.471612 17.563 -13.7863 5.95955 -0.683162 -1.54481
lowerback -0.914276 -0.447252 0.472613
upperback 4.49012 -0.68859 1.63087
thorax 5.16506 -0.361158 1.38577
lowerneck -15.7662 0.672214 -2.42013
upperneck 25.3037 1.61111 0.0341606
head 10.7291 0.503588 0.643434
rclavicle 6.75868e-015 -2.44505e-014
rhumerus -18.2493 -10.7326 -84.8745
rradius 24.5881
rwrist 31.6916
rhand -19.3422 -26.3389
rfingers 7.12502
rthumb 6.97482 -56.204
lclavicle 6.75868e-015 -2.44505e-014
lhumerus -17.5811 -6.47682 91.4936
lradius 19.5059
lwrist 3.85995
lhand -24.8684 -4.15008
lfingers 7.12502
lthumb 1.6387 25.8234
rfemur -10.8423 -3.68642 20.1037
rtibia 19.5192
rfoot -13.9435 -1.89123
rtoes 7.99837
lfemur -9.97169 8.25385 -18.4338
ltibia 16.8173
lfoot -11.6202 1.51716
ltoes -8.49821
11
root 0.470433 17.5628 -13.7872 5.9572 -0.676961 -1.55441
lowerback -0.915966 -0.441841 0.466971
upperback 4.48715 -0.68104 1.62918
thorax 5.16278 -0.357591 1.38758
lowerneck -15.7894 0.677684 -2.37879
upperneck 25.3371 1.61417 0.0140952
head 10.7465 0.505999 0.630037
rclavicle 1.88845e-015 2.98177e-015
rhumerus -18.2585 -10.7125 -84.8839
rradius 24.5929
rwrist 31.6919
rhand -19.3393 -26.3402
rfingers 7.12502
rthumb 6.9776 -56.2052
lclavicle 1.88845e-015 2.98177e-015
lhumerus -17.5914 -6.5476 91.5665
lradius 19.5178
lwrist 3.90098
lhand -24.8664 -4.16924
lfingers 7.12502
lthumb 1.64062 25.8042
rfemur -10.8443 -3.71007 20.1186
rtibia 19.5222
rfoot -13.9435 -1.87462
rtoes 7.98541
lfemur -9.97655 8.24147 -18.4187
ltibia 16.8267
lfoot -11.6237 1.53299
ltoes -8.50893
12
root 0.469282 17.5627 -13.7879 5.95566 -0.673235 -1.56268
lowerback -0.919784 -0.43577 0.45674
upperback 4.48224 -0.67248 1.62842
thorax 5.15972 -0.353731 1.39296
lowerneck -15.8115 0.681123 -2.34732
upperneck 25.3757 1.61388 0.00574726
head 10.7654 0.507312 0.62208
rclavicle -1.19271e-015 -1.39149e-014
rhumerus -18.27 -10.6972 -84.8888
rradius 24.5939
rwrist 31.6971
rhand -19.3345 -26.3468
rfingers 7.12502
rthumb 6.98223 -56.2116
lclavicle -1.19271e-015 -1.39149e-014
lhumerus -17.6076 -6.61896 91.6405
lradius 19.5351
lwrist 3.93965
lhand -24.871 -4.18844
lfingers 7.12502
lthumb 1.63618 25.785
rfemur -10.8459 -3.73062 20.1318
rtibia 19.5237
rfoot -13.9419 -1.85896
rtoes 7.98011
lfemur -9.98045 8.23198 -18.4054
ltibia 16.835
lfoot -11.628 1.54801
ltoes -8.51657
